<?xml version="1.0" encoding="UTF-8" standalone="no"?>
<svg width="400" height="300" viewBox="0 0 400 300" xmlns="http://www.w3.org/2000/svg">
  <!-- Background -->
  <rect width="400" height="300" fill="#F7F4D4" />
  
  <!-- Sun -->
  <circle cx="320" cy="70" r="40" fill="#F58F30" />
  <circle cx="320" cy="70" r="30" fill="#EB3B4D" />
  
  <!-- Mountains -->
  <polygon points="0,300 150,100 300,250 400,180 400,300" fill="#2A3A7C" />
  <polygon points="0,300 100,200 200,250 300,220 400,280 400,300" fill="#4EB8A0" />
  
  <!-- Trees -->
  <g transform="translate(80, 200)">
    <rect x="-5" y="0" width="10" height="30" fill="#2D4C2A" />
    <polygon points="0,-40 -20,0 20,0" fill="#4EB8A0" />
    <polygon points="0,-60 -15,-20 15,-20" fill="#4EB8A0" />
    <polygon points="0,-75 -10,-40 10,-40" fill="#4EB8A0" />
  </g>
  
  <g transform="translate(150, 220)">
    <rect x="-6" y="0" width="12" height="25" fill="#2D4C2A" />
    <polygon points="0,-35 -25,0 25,0" fill="#638FC0" />
    <polygon points="0,-55 -20,-15 20,-15" fill="#638FC0" />
  </g>
  
  <g transform="translate(250, 210)">
    <rect x="-7" y="0" width="14" height="35" fill="#2D4C2A" />
    <polygon points="0,-50 -30,0 30,0" fill="#4EB8A0" />
    <polygon points="0,-75 -25,-25 25,-25" fill="#4EB8A0" />
    <polygon points="0,-95 -20,-50 20,-50" fill="#4EB8A0" />
  </g>
  
  <!-- Bird -->
  <g transform="translate(100, 100)">
    <path d="M0,0 C5,-10 15,-10 20,0 C25,-10 35,-10 40,0" stroke="#000000" stroke-width="3" fill="none" />
  </g>
  
  <!-- Cloud -->
  <g transform="translate(180, 60)">
    <ellipse cx="0" cy="0" rx="30" ry="20" fill="#F7F4D4" stroke="#638FC0" stroke-width="2" />
    <ellipse cx="25" cy="-5" rx="25" ry="15" fill="#F7F4D4" stroke="#638FC0" stroke-width="2" />
    <ellipse cx="-25" cy="5" rx="20" ry="15" fill="#F7F4D4" stroke="#638FC0" stroke-width="2" />
  </g>
</svg>
